REM DIRINDEX 1\5,1\2\6,1\2\7,1\3\8,1\3\9,1\4\10,1\4\11,1\4\12
REM DIRNAME cjc026,folder01,folder02,folder03,folder04,folder05,folder06,folder07,folder08,folder09,folder10,folder11
TITLE ""
FILE "EJE_DB3000_5th_6C_36.mp3" MP3
  TRACK 01 AUDIO
    TITLE "0:"
    INDEX 01 00:00:00
  TRACK 02 AUDIO
    TITLE "10:cjc026_11544"
    INDEX 01 00:00:08
  TRACK 03 AUDIO
    TITLE "0:"
    INDEX 01 00:01:27
  TRACK 04 AUDIO
    TITLE "11:cjc026_11545"
    INDEX 01 00:01:62
  TRACK 05 AUDIO
    TITLE "0:"
    INDEX 01 00:03:23
  TRACK 06 AUDIO
    TITLE "12:cjc026_11546"
    INDEX 01 00:03:58
  TRACK 07 AUDIO
    TITLE "0:"
    INDEX 01 00:05:03
  TRACK 08 AUDIO
    TITLE "10:cjc026_11547"
    INDEX 01 00:05:38
  TRACK 09 AUDIO
    TITLE "0:"
    INDEX 01 00:06:63
  TRACK 10 AUDIO
    TITLE "11:cjc026_11548"
    INDEX 01 00:07:23
  TRACK 11 AUDIO
    TITLE "0:"
    INDEX 01 00:08:42
  TRACK 12 AUDIO
    TITLE "12:cjc026_11549"
    INDEX 01 00:09:02
  TRACK 13 AUDIO
    TITLE "0:"
    INDEX 01 00:10:27
  TRACK 14 AUDIO
    TITLE "10:cjc026_11550"
    INDEX 01 00:10:62
  TRACK 15 AUDIO
    TITLE "0:"
    INDEX 01 00:12:04
  TRACK 16 AUDIO
    TITLE "11:cjc026_11551"
    INDEX 01 00:12:42
  TRACK 17 AUDIO
    TITLE "0:"
    INDEX 01 00:13:67
  TRACK 18 AUDIO
    TITLE "12:cjc026_11552"
    INDEX 01 00:14:27
  TRACK 19 AUDIO
    TITLE "0:"
    INDEX 01 00:15:46
  TRACK 20 AUDIO
    TITLE "10:cjc026_11553"
    INDEX 01 00:16:04
  TRACK 21 AUDIO
    TITLE "0:"
    INDEX 01 00:17:48
  TRACK 22 AUDIO
    TITLE "11:cjc026_11554"
    INDEX 01 00:18:10
  TRACK 23 AUDIO
    TITLE "0:"
    INDEX 01 00:19:33
  TRACK 24 AUDIO
    TITLE "12:cjc026_11555"
    INDEX 01 00:19:68
  TRACK 25 AUDIO
    TITLE "0:"
    INDEX 01 00:21:36
  TRACK 26 AUDIO
    TITLE "10:cjc026_11556"
    INDEX 01 00:21:74
  TRACK 27 AUDIO
    TITLE "0:"
    INDEX 01 00:23:24
  TRACK 28 AUDIO
    TITLE "11:cjc026_11557"
    INDEX 01 00:23:59
  TRACK 29 AUDIO
    TITLE "0:"
    INDEX 01 00:25:17
  TRACK 30 AUDIO
    TITLE "12:cjc026_11558"
    INDEX 01 00:25:55
  TRACK 31 AUDIO
    TITLE "0:"
    INDEX 01 00:27:05
  TRACK 32 AUDIO
    TITLE "10:cjc026_11559"
    INDEX 01 00:27:43
  TRACK 33 AUDIO
    TITLE "0:"
    INDEX 01 00:28:73
  TRACK 34 AUDIO
    TITLE "11:cjc026_11560"
    INDEX 01 00:29:33
  TRACK 35 AUDIO
    TITLE "0:"
    INDEX 01 00:30:53
  TRACK 36 AUDIO
    TITLE "12:cjc026_11561"
    INDEX 01 00:31:15
  TRACK 37 AUDIO
    TITLE "0:"
    INDEX 01 00:32:46
  TRACK 38 AUDIO
    TITLE "10:cjc026_11562"
    INDEX 01 00:33:08
  TRACK 39 AUDIO
    TITLE "0:"
    INDEX 01 00:34:28
  TRACK 40 AUDIO
    TITLE "11:cjc026_11563"
    INDEX 01 00:34:63
  TRACK 41 AUDIO
    TITLE "0:"
    INDEX 01 00:36:13
  TRACK 42 AUDIO
    TITLE "12:cjc026_11564"
    INDEX 01 00:36:48
  TRACK 43 AUDIO
    TITLE "0:"
    INDEX 01 00:37:70
  TRACK 44 AUDIO
    TITLE "10:cjc026_11565"
    INDEX 01 00:38:30
  TRACK 45 AUDIO
    TITLE "0:"
    INDEX 01 00:39:69
  TRACK 46 AUDIO
    TITLE "11:cjc026_11566"
    INDEX 01 00:40:32
  TRACK 47 AUDIO
    TITLE "0:"
    INDEX 01 00:41:57
  TRACK 48 AUDIO
    TITLE "12:cjc026_11567"
    INDEX 01 00:42:17
  TRACK 49 AUDIO
    TITLE "0:"
    INDEX 01 00:43:55
  TRACK 50 AUDIO
    TITLE "10:cjc026_11568"
    INDEX 01 00:44:15
  TRACK 51 AUDIO
    TITLE "0:"
    INDEX 01 00:45:54
  TRACK 52 AUDIO
    TITLE "11:cjc026_11569"
    INDEX 01 00:46:14
  TRACK 53 AUDIO
    TITLE "0:"
    INDEX 01 00:47:41
  TRACK 54 AUDIO
    TITLE "12:cjc026_11570"
    INDEX 01 00:48:04
  TRACK 55 AUDIO
    TITLE "0:"
    INDEX 01 00:49:40
  TRACK 56 AUDIO
    TITLE "10:cjc026_11571"
    INDEX 01 00:50:03
  TRACK 57 AUDIO
    TITLE "0:"
    INDEX 01 00:51:25
  TRACK 58 AUDIO
    TITLE "11:cjc026_11572"
    INDEX 01 00:51:63
  TRACK 59 AUDIO
    TITLE "0:"
    INDEX 01 00:54:32
  TRACK 60 AUDIO
    TITLE "12:cjc026_11573"
    INDEX 01 00:54:72
  TRACK 61 AUDIO
    TITLE "0:"
    INDEX 01 00:56:17
  TRACK 62 AUDIO
    TITLE "10:cjc026_11574"
    INDEX 01 00:56:52
  TRACK 63 AUDIO
    TITLE "0:"
    INDEX 01 00:58:10
  TRACK 64 AUDIO
    TITLE "11:cjc026_11575"
    INDEX 01 00:58:45
  TRACK 65 AUDIO
    TITLE "0:"
    INDEX 01 01:01:33
  TRACK 66 AUDIO
    TITLE "12:cjc026_11576"
    INDEX 01 01:01:66
  TRACK 67 AUDIO
    TITLE "0:"
    INDEX 01 01:03:21
  TRACK 68 AUDIO
    TITLE "10:cjc026_11577"
    INDEX 01 01:03:56
  TRACK 69 AUDIO
    TITLE "0:"
    INDEX 01 01:05:03
  TRACK 70 AUDIO
    TITLE "11:cjc026_11578"
    INDEX 01 01:05:44
  TRACK 71 AUDIO
    TITLE "0:"
    INDEX 01 01:08:13
  TRACK 72 AUDIO
    TITLE "12:cjc026_11579"
    INDEX 01 01:08:48
  TRACK 73 AUDIO
    TITLE "0:"
    INDEX 01 01:09:73
